<?xml version="1.0" encoding="UTF-8" standalone="no"?>
<svg
   xmlns:dc="http://purl.org/dc/elements/1.1/"
   xmlns:cc="http://creativecommons.org/ns#"
   xmlns:rdf="http://www.w3.org/1999/02/22-rdf-syntax-ns#"
   xmlns:svg="http://www.w3.org/2000/svg"
   xmlns="http://www.w3.org/2000/svg"
   width="800"
   height="240"
   viewBox="0 0 211.66666 63.500002"
   version="1.1"
   id="svg1136">
  <defs
     id="defs1130" />
  <metadata
     id="metadata1133">
    <rdf:RDF>
      <cc:Work
         rdf:about="">
        <dc:format>image/svg+xml</dc:format>
        <dc:type
           rdf:resource="http://purl.org/dc/dcmitype/StillImage" />
        <dc:title></dc:title>
      </cc:Work>
    </rdf:RDF>
  </metadata>
  <rect
     style="fill:none;stroke:none;stroke-width:0.955011;stroke-linecap:round;stroke-miterlimit:4;stroke-dasharray:none;paint-order:stroke fill markers"
     id="rect839"
     width="211.66667"
     height="63.5"
     x="-2.5431316e-06"
     y="-1.4210855e-14" />
  <path
     d="m 122.90585,45.626567 c 7.46762,0 10.89997,-4.597015 11.92039,-6.004287 l -5.38042,-3.142838 c -0.7885,0.891269 -2.69021,3.002124 -6.53997,3.002124 -1.39149,0 -6.12256,-0.469077 -6.95744,-4.690806 h 20.13018 c 0,0 0.13919,-1.266534 0.13919,-3.23667 -0.2319,-8.302782 -6.77189,-12.805964 -13.3119,-12.805964 -4.77742,0 -13.86847,2.814477 -13.86847,13.415757 0,10.601279 8.90551,13.462684 13.86847,13.462684 z m -0.0464,-20.73346 c 3.47872,0 5.75147,2.57995 6.02977,4.925353 h -12.75533 c 0.2783,-2.626857 2.73661,-4.925353 6.72553,-4.925353 z"
     style="font-style:normal;font-variant:normal;font-weight:normal;font-stretch:normal;font-size:25.4px;line-height:1.25;font-family:Renogare;-inkscape-font-specification:Renogare;letter-spacing:0px;word-spacing:0px;fill:#008080;fill-opacity:1;stroke-width:0.499107"
     id="path1089" />
  <path
     d="m 195.83333,5.821804 v 39.85572 h -8.02745 V 5.821804 Z"
     id="path1093"
     style="fill:#008080;fill-opacity:1;stroke-width:0.219469" />
  <path
     id="path1101"
     style="fill:#008080;fill-opacity:1;stroke-width:0.271847"
     d="m 45.930329,18.761144 11.850644,26.925032 -5.05602,12.219052 h 8.67952 L 77.603332,18.761144 h -8.679526 l -6.897038,16.665165 -7.33478,-16.665165 z" />
  <g
     id="g1107"
     transform="matrix(0.21505766,0,0,0.21710301,96.525471,-31.888988)"
     style="fill:#008080;fill-opacity:1">
    <g
       id="g1105"
       style="fill:#008080;fill-opacity:1">
      <polygon
         points="404.2,413.6 366.7,413.6 342.3,322.9 289.8,413.6 247.9,413.6 328.9,273.2 315.9,224.4 206.6,413.7 164.7,413.7 303.2,173.7 339.9,173.7 356,233.3 393.9,233.3 368,278.3 "
         id="polygon1103"
         style="fill:#008080;fill-opacity:1" />
    </g>
  </g>
  <path
     id="path1743"
     style="fill:#008080;fill-opacity:1;stroke-width:0.845949"
     d="M 59.689453 21.949219 L 59.689453 172.58398 L 90.03125 172.58398 L 90.03125 129.49414 L 102.875 129.49414 C 103.25401 129.50132 103.61861 129.54297 104 129.54297 C 136.01245 129.54297 159.87109 107.19585 159.87109 75.84375 C 159.87109 44.741806 136.01245 21.978516 104 21.978516 C 103.61861 21.978516 103.25401 22.020817 102.875 22.027344 L 102.875 22.029297 L 90.03125 22.029297 L 90.03125 21.949219 L 59.689453 21.949219 z M 104 49.160156 C 119.44837 49.160156 129.40234 61.08491 129.40234 75.84375 C 129.40234 91.01949 119.36253 102.27596 104 102.35938 C 103.60663 102.35938 103.26115 102.26846 102.875 102.25391 L 90.03125 102.25391 L 90.03125 49.269531 L 102.875 49.269531 C 103.26112 49.254791 103.60666 49.160156 104 49.160156 z "
     transform="scale(0.26458333)" />
  <path
     id="path1752"
     style="fill:#008080;fill-opacity:1;stroke-width:0.829251"
     d="M 302.56836 22.03125 L 302.56836 52.371094 L 337.44727 52.371094 L 337.44727 172.58203 L 367.78711 172.58203 L 367.78711 52.371094 L 402.66797 52.371094 L 402.66797 22.03125 L 367.78711 22.03125 L 337.44727 22.03125 L 302.56836 22.03125 z "
     transform="scale(0.26458333)" />
</svg>
